# 3ds Max Wavefront OBJ Exporter v0.97b - (c)2007 guruware
# File Created: 12.03.2015 16:54:02

mtllib bai01.mtl

#
# object Box002
#

v  -21.9773 0.0000 44.4367
v  12.2564 0.0000 44.4367
v  12.2564 0.0000 56.6065
v  -21.9773 0.0000 56.6065
v  12.2564 1.6593 56.6065
v  12.2564 1.6593 44.4367
v  -21.9773 1.6593 44.4367
v  -21.9773 1.6593 56.6065
v  36.0904 0.0000 44.4367
v  36.0904 1.6593 44.4367
v  36.0904 1.6593 56.6065
v  36.0904 0.0000 56.6065
v  12.2564 0.0000 -56.6065
v  -21.9773 0.0000 -56.6065
v  -21.9773 1.6593 -56.6065
v  12.2564 1.6593 -56.6065
v  -21.9773 0.0000 -32.3697
v  -21.9773 1.6593 -32.3697
v  -21.9773 0.0000 -12.6886
v  12.2564 0.0000 -12.6886
v  12.2564 1.6593 -12.6886
v  -21.9773 1.6593 -12.6886
v  12.2564 0.0000 -32.3697
v  12.2564 1.6593 -32.3697
v  15.8455 0.0000 -56.6065
v  15.8455 1.6593 -56.6065
v  15.8455 1.6593 -32.3697
v  15.8455 0.0000 -32.3697
v  44.7407 0.0000 -32.3697
v  44.7407 1.6593 -32.3697
v  44.7407 1.6593 -12.6886
v  44.7407 0.0000 -12.6886
v  15.8455 1.6593 -12.6886
v  15.8455 0.0000 -12.6886
# 34 vertices

vn 0.0000 -1.0000 -0.0000
vn 0.0000 1.0000 0.0000
vn 0.0000 0.0000 1.0000
vn 1.0000 0.0000 -0.0000
vn 0.0000 -0.0000 -1.0000
vn -1.0000 0.0000 -0.0000
vn 0.0000 0.0000 -1.0000
# 7 vertex normals

vt 1.0000 0.0900 0.0000
vt 0.0000 0.0900 0.0000
vt 0.0000 0.0000 0.0000
vt 1.0000 0.0000 0.0000
vt 1.0000 1.0000 0.0000
vt 0.0000 1.0000 0.0000
vt 0.0900 0.0000 0.0000
vt 0.0900 1.0000 0.0000
vt 0.1866 0.0000 0.0000
vt 0.1866 1.0000 0.0000
vt 1.0000 0.6254 0.0000
vt 0.0000 0.6254 0.0000
vt 0.6254 0.0000 0.0000
vt 0.6254 1.0000 0.0000
vt 0.9100 1.0000 0.0000
vt 0.9100 0.0000 0.0000
vt 0.3746 0.0000 0.0000
vt 0.3746 1.0000 0.0000
vt 0.0000 0.8134 0.0000
vt 1.0000 0.8134 0.0000
vt 0.8134 1.0000 0.0000
vt 0.8134 0.0000 0.0000
# 22 texture coords

g Box002
usemtl 02___Default
s 2
f 1/1/1 2/2/1 3/3/1 4/4/1 
s 4
f 5/4/2 6/1/2 7/2/2 8/3/2 
s 8
f 4/3/3 3/4/3 5/5/3 8/6/3 
s 16
f 9/7/4 10/8/4 11/6/4 12/3/4 
s 32
f 13/3/5 14/4/5 15/5/5 16/6/5 
s 64
f 17/9/6 18/10/6 15/6/6 14/3/6 
s 2
f 19/11/1 20/12/1 2/2/1 1/1/1 
s 4
f 21/11/2 22/12/2 7/2/2 6/1/2 
s 16
f 20/13/4 21/14/4 6/8/4 2/7/4 
s 64
f 4/4/6 8/5/6 7/15/6 1/16/6 
s off
f 6/1/2 5/4/2 11/6/2 10/8/2 
f 5/5/3 3/4/3 12/3/3 11/6/3 
f 3/3/1 2/2/1 9/7/1 12/3/1 
f 2/7/7 6/8/7 10/8/7 9/7/7 
s 64
f 19/17/6 22/18/6 18/10/6 17/9/6 
s 2
f 14/5/1 13/6/1 23/19/1 17/20/1 
s 4
f 16/5/2 15/6/2 18/19/2 24/20/2 
s 16
f 25/4/4 26/5/4 27/21/4 28/22/4 
s 2
f 17/20/1 23/19/1 20/12/1 19/11/1 
s 4
f 24/20/2 18/19/2 22/12/2 21/11/2 
s 16
f 29/22/4 30/21/4 31/14/4 32/13/4 
s 64
f 1/16/6 7/15/6 22/18/6 19/17/6 
s off
f 23/19/1 13/6/1 25/4/1 28/22/1 
f 13/3/5 16/6/5 26/5/5 25/4/5 
f 16/5/2 24/20/2 27/21/2 26/5/2 
f 24/20/2 21/11/2 33/14/2 27/21/2 
f 21/14/3 20/13/3 34/13/3 33/14/3 
f 20/12/1 23/19/1 28/22/1 34/13/1 
f 28/22/7 27/21/7 30/21/7 29/22/7 
f 27/21/2 33/14/2 31/14/2 30/21/2 
f 33/14/3 34/13/3 32/13/3 31/14/3 
f 34/13/1 28/22/1 29/22/1 32/13/1 
# 32 polygons

