# 3ds Max Wavefront OBJ Exporter v0.97b - (c)2007 guruware
# File Created: 12.03.2015 16:53:12

mtllib dibu.mtl

#
# object Box001
#

v  -132.6055 0.0000 -64.1749
v  -115.4198 0.0000 -64.1749
v  -115.4198 0.0000 64.1749
v  -132.6055 0.0000 64.1749
v  -115.4198 1.7811 64.1749
v  -115.4198 1.7811 -64.1749
v  -132.6055 1.7811 -64.1749
v  -132.6055 1.7811 64.1749
v  0.0000 0.0000 -64.1749
v  0.0000 0.0000 64.1749
v  -84.8675 0.0000 64.1749
v  -84.8675 0.0000 -64.1749
v  0.0000 1.7811 64.1749
v  0.0000 1.7811 -64.1749
v  -84.8675 1.7811 -64.1749
v  -84.8675 1.7811 64.1749
v  -97.1709 1.7811 -87.8819
v  -127.7232 1.7811 -87.8819
v  -127.7232 0.0000 -87.8819
v  -97.1709 0.0000 -87.8819
v  -116.2399 1.7811 -124.6145
v  -146.1078 1.7811 -120.7226
v  -116.2399 0.0000 -124.6145
v  -146.1078 0.0000 -120.7226
v  0.0000 0.0000 -87.8819
v  0.0000 1.7811 -87.8819
v  -103.3001 0.0000 -145.3621
v  -102.8822 0.0000 -151.6110
v  -102.8822 1.7811 -151.6110
v  -103.3001 1.7811 -145.3621
v  -103.6914 0.0000 -157.8215
v  -103.6914 1.7811 -157.8215
v  -105.6967 0.0000 -163.7547
v  -105.6967 1.7811 -163.7547
v  -108.8210 0.0000 -169.1827
v  -108.8210 1.7811 -169.1827
v  -112.9442 0.0000 -173.8969
v  -112.9442 1.7811 -173.8969
v  -117.9078 0.0000 -177.7160
v  -117.9078 1.7811 -177.7160
v  -123.5212 0.0000 -180.4935
v  -123.5212 1.7811 -180.4935
v  -129.5685 0.0000 -182.1225
v  -129.5685 1.7811 -182.1225
v  -135.8175 0.0000 -182.5404
v  -135.8175 1.7811 -182.5404
v  -142.0279 0.0000 -181.7312
v  -142.0279 1.7811 -181.7312
v  -147.9611 0.0000 -179.7259
v  -147.9611 1.7811 -179.7259
v  -153.3891 0.0000 -176.6016
v  -153.3891 1.7811 -176.6016
v  -158.1033 0.0000 -172.4784
v  -158.1033 1.7811 -172.4784
v  -161.9225 0.0000 -167.5148
v  -161.9225 1.7811 -167.5148
v  -164.7000 0.0000 -161.9014
v  -164.7000 1.7811 -161.9014
v  -166.3290 0.0000 -155.8540
v  -166.3290 1.7811 -155.8540
v  -166.7469 0.0000 -149.6051
v  -166.7469 1.7811 -149.6051
v  -165.9376 0.0000 -143.3946
v  -165.9376 1.7811 -143.3946
v  -163.9323 0.0000 -137.4614
v  -163.9323 1.7811 -137.4614
v  -160.8081 0.0000 -132.0334
v  -160.8081 1.7811 -132.0334
v  -156.6849 0.0000 -127.3192
v  -156.6849 1.7811 -127.3192
v  -151.7212 0.0000 -123.5000
v  -151.7212 1.7811 -123.5000
v  -111.5257 0.0000 -128.7377
v  -111.5257 1.7811 -128.7377
v  -107.7065 0.0000 -133.7014
v  -107.7065 1.7811 -133.7014
v  -104.9290 0.0000 -139.3147
v  -104.9290 1.7811 -139.3147
v  132.6055 0.0000 -64.1749
v  132.6055 0.0000 64.1749
v  115.4198 0.0000 64.1749
v  115.4198 0.0000 -64.1749
v  115.4198 1.7811 64.1749
v  132.6055 1.7811 64.1749
v  132.6055 1.7811 -64.1749
v  115.4198 1.7811 -64.1749
v  84.8675 0.0000 -64.1749
v  84.8675 0.0000 64.1749
v  84.8675 1.7811 64.1749
v  84.8675 1.7811 -64.1749
v  127.7232 1.7811 -87.8819
v  97.1709 1.7811 -87.8819
v  97.1709 0.0000 -87.8819
v  127.7232 0.0000 -87.8819
v  116.2399 1.7811 -124.6145
v  146.1078 1.7811 -120.7226
v  116.2399 0.0000 -124.6145
v  146.1078 0.0000 -120.7226
v  103.3001 0.0000 -145.3621
v  103.3001 1.7811 -145.3621
v  102.8822 1.7811 -151.6110
v  102.8822 0.0000 -151.6110
v  103.6914 1.7811 -157.8215
v  103.6914 0.0000 -157.8215
v  105.6967 1.7811 -163.7547
v  105.6967 0.0000 -163.7547
v  108.8210 1.7811 -169.1827
v  108.8210 0.0000 -169.1827
v  112.9442 1.7811 -173.8969
v  112.9442 0.0000 -173.8969
v  117.9078 1.7811 -177.7160
v  117.9078 0.0000 -177.7160
v  123.5212 1.7811 -180.4935
v  123.5212 0.0000 -180.4935
v  129.5685 1.7811 -182.1225
v  129.5685 0.0000 -182.1225
v  135.8175 1.7811 -182.5404
v  135.8175 0.0000 -182.5404
v  142.0279 1.7811 -181.7312
v  142.0279 0.0000 -181.7312
v  147.9611 1.7811 -179.7259
v  147.9611 0.0000 -179.7259
v  153.3891 1.7811 -176.6016
v  153.3891 0.0000 -176.6016
v  158.1033 1.7811 -172.4784
v  158.1033 0.0000 -172.4784
v  161.9225 1.7811 -167.5148
v  161.9225 0.0000 -167.5148
v  164.7000 1.7811 -161.9014
v  164.7000 0.0000 -161.9014
v  166.3290 1.7811 -155.8540
v  166.3290 0.0000 -155.8540
v  166.7469 1.7811 -149.6051
v  166.7469 0.0000 -149.6051
v  165.9376 1.7811 -143.3946
v  165.9376 0.0000 -143.3946
v  163.9323 1.7811 -137.4614
v  163.9323 0.0000 -137.4614
v  160.8081 1.7811 -132.0334
v  160.8081 0.0000 -132.0334
v  156.6849 1.7811 -127.3192
v  156.6849 0.0000 -127.3192
v  151.7212 1.7811 -123.5000
v  151.7212 0.0000 -123.5000
v  111.5257 1.7811 -128.7377
v  111.5257 0.0000 -128.7377
v  107.7065 1.7811 -133.7014
v  107.7065 0.0000 -133.7014
v  104.9290 1.7811 -139.3147
v  104.9290 0.0000 -139.3147
# 150 vertices

vn 0.0000 -1.0000 -0.0000
vn 0.0000 1.0000 -0.0000
vn 0.0000 0.0000 1.0000
vn -1.0000 0.0000 -0.0000
vn 0.0000 0.0000 -1.0000
vn -0.8428 -0.0000 0.5382
vn 0.0000 1.0000 0.0000
vn 0.8428 0.0000 -0.5383
vn -0.0000 -1.0000 -0.0000
vn -0.8236 0.0000 0.5672
vn 0.9799 0.0000 0.1997
vn 0.9993 0.0000 -0.0384
vn 0.9620 0.0000 -0.2730
vn 0.8751 0.0000 -0.4839
vn 0.7524 0.0000 -0.6587
vn 0.6082 0.0000 -0.7938
vn 0.4534 0.0000 -0.8913
vn 0.2945 0.0000 -0.9556
vn 0.1345 0.0000 -0.9909
vn -0.0256 0.0000 -0.9997
vn -0.1857 0.0000 -0.9826
vn -0.3456 0.0000 -0.9384
vn -0.5036 0.0000 -0.8639
vn -0.6559 0.0000 -0.7548
vn -0.7946 0.0000 -0.6071
vn -0.9075 0.0000 -0.4200
vn -0.9799 0.0000 -0.1997
vn -0.9993 0.0000 0.0384
vn -0.9620 0.0000 0.2730
vn -0.8751 0.0000 0.4839
vn -0.7524 0.0000 0.6587
vn -0.6082 -0.0000 0.7938
vn -0.4534 0.0000 0.8913
vn -0.4534 -0.0000 0.8913
vn -0.3731 0.0000 0.9278
vn 0.5794 0.0000 0.8150
vn 0.6559 0.0000 0.7548
vn 0.7946 0.0000 0.6071
vn 0.9075 0.0000 0.4200
vn -0.0000 -1.0000 0.0000
vn 0.0000 -1.0000 0.0000
vn -0.0000 1.0000 -0.0000
vn -0.0000 1.0000 0.0000
vn 1.0000 0.0000 -0.0000
vn 0.8428 -0.0000 0.5382
vn -0.8428 0.0000 -0.5383
vn 0.8236 0.0000 0.5672
vn -0.9799 0.0000 0.1997
vn -0.9993 0.0000 -0.0384
vn -0.9620 0.0000 -0.2730
vn -0.8751 0.0000 -0.4839
vn -0.7524 0.0000 -0.6587
vn -0.6082 0.0000 -0.7938
vn -0.4534 0.0000 -0.8913
vn -0.2945 0.0000 -0.9556
vn -0.1345 0.0000 -0.9909
vn 0.0256 0.0000 -0.9997
vn 0.1857 0.0000 -0.9826
vn 0.3456 0.0000 -0.9384
vn 0.5036 0.0000 -0.8639
vn 0.6559 0.0000 -0.7548
vn 0.7946 0.0000 -0.6071
vn 0.9075 0.0000 -0.4200
vn 0.9799 0.0000 -0.1997
vn 0.9993 0.0000 0.0384
vn 0.9620 0.0000 0.2730
vn 0.8751 0.0000 0.4839
vn 0.7524 0.0000 0.6587
vn 0.6082 -0.0000 0.7938
vn 0.4534 -0.0000 0.8913
vn 0.4534 0.0000 0.8913
vn 0.3731 0.0000 0.9278
vn -0.5794 0.0000 0.8150
vn -0.6559 0.0000 0.7548
vn -0.7946 0.0000 0.6071
vn -0.9075 0.0000 0.4200
# 76 vertex normals

vt 1.0000 1.0000 0.0000
vt 0.9352 1.0000 0.0000
vt 0.9352 0.0000 0.0000
vt 1.0000 0.0000 0.0000
vt 0.0648 0.0000 0.0000
vt 0.0648 1.0000 0.0000
vt 0.0000 1.0000 0.0000
vt 0.0000 0.0000 0.0000
vt 0.5000 1.0000 0.0000
vt 0.5000 0.0000 0.0000
vt 0.8200 0.0000 0.0000
vt 0.8200 1.0000 0.0000
vt 0.1800 1.0000 0.0000
vt 0.1800 0.0000 0.0000
vt 0.3496 1.0000 0.0000
vt 0.2955 1.0000 0.0000
vt 0.9352 0.7350 0.0000
vt 0.8200 0.7350 0.0000
vt 0.7500 0.0000 1.0000
vt 0.7813 0.0000 1.0000
vt 0.7813 1.0000 1.0000
vt 0.7500 1.0000 1.0000
vt 0.8125 0.0000 1.0000
vt 0.8125 1.0000 1.0000
vt 0.8438 0.0000 1.0000
vt 0.8438 1.0000 1.0000
vt 0.8750 0.0000 1.0000
vt 0.8750 1.0000 1.0000
vt 0.9062 0.0000 1.0000
vt 0.9062 1.0000 1.0000
vt 0.9375 0.0000 1.0000
vt 0.9375 1.0000 1.0000
vt 0.9688 0.0000 1.0000
vt 0.9688 1.0000 1.0000
vt 1.0000 0.0000 1.0000
vt 1.0000 1.0000 1.0000
vt 1.0313 0.0000 1.0000
vt 1.0313 1.0000 1.0000
vt 0.0313 0.0000 1.0000
vt 0.0625 0.0000 1.0000
vt 0.0625 1.0000 1.0000
vt 0.0313 1.0000 1.0000
vt 0.0938 0.0000 1.0000
vt 0.0938 1.0000 1.0000
vt 0.1250 0.0000 1.0000
vt 0.1250 1.0000 1.0000
vt 0.1563 0.0000 1.0000
vt 0.1563 1.0000 1.0000
vt 0.1875 0.0000 1.0000
vt 0.1875 1.0000 1.0000
vt 0.2188 0.0000 1.0000
vt 0.2188 1.0000 1.0000
vt 0.2500 0.0000 1.0000
vt 0.2500 1.0000 1.0000
vt 0.2813 0.0000 1.0000
vt 0.2813 1.0000 1.0000
vt 0.3125 0.0000 1.0000
vt 0.3125 1.0000 1.0000
vt 0.3438 0.0000 1.0000
vt 0.3438 1.0000 1.0000
vt 0.3750 0.0000 1.0000
vt 0.3750 1.0000 1.0000
vt 0.4063 0.0000 1.0000
vt 0.4063 1.0000 1.0000
vt 0.4375 0.0000 1.0000
vt 0.4375 1.0000 1.0000
vt 0.4688 0.0000 1.0000
vt 0.4688 1.0000 1.0000
vt 0.6250 0.0000 1.0000
vt 0.6563 0.0000 1.0000
vt 0.6563 1.0000 1.0000
vt 0.6250 1.0000 1.0000
vt 0.6875 0.0000 1.0000
vt 0.6875 1.0000 1.0000
vt 0.7188 0.0000 1.0000
vt 0.7188 1.0000 1.0000
vt 0.3087 0.9619 -0.2500
vt 0.4025 0.9904 -0.2500
vt 0.5000 1.0000 -0.2500
vt 0.5975 0.9904 -0.2500
vt 0.6913 0.9619 -0.2500
vt 0.7778 0.9157 -0.2500
vt 0.8536 0.8536 -0.2500
vt 0.9904 0.4025 -0.2500
vt 0.9619 0.3087 -0.2500
vt 0.9157 0.2222 -0.2500
vt 0.8536 0.1464 -0.2500
vt 0.7778 0.0843 -0.2500
vt 0.6913 0.0381 -0.2500
vt 0.5975 0.0096 -0.2500
vt 0.5000 0.0000 -0.2500
vt 0.4025 0.0096 -0.2500
vt 0.3087 0.0381 -0.2500
vt 0.2222 0.0843 -0.2500
vt 0.1464 0.1464 -0.2500
vt 0.0843 0.2222 -0.2500
vt 0.0381 0.3087 -0.2500
vt 0.0096 0.4025 -0.2500
vt 0.0000 0.5000 -0.2500
vt 0.0096 0.5975 -0.2500
vt 0.0381 0.6913 -0.2500
vt 0.0843 0.7778 -0.2500
vt 0.1464 0.8536 -0.2500
vt 0.2222 0.9157 -0.2500
vt 0.7778 0.9157 0.2500
vt 0.6913 0.9619 0.2500
vt 0.5975 0.9904 0.2500
vt 0.5000 1.0000 0.2500
vt 0.4025 0.9904 0.2500
vt 0.3087 0.9619 0.2500
vt 0.2222 0.9157 0.2500
vt 0.1464 0.8536 0.2500
vt 0.0843 0.7778 0.2500
vt 0.0381 0.6913 0.2500
vt 0.0096 0.5975 0.2500
vt 0.0000 0.5000 0.2500
vt 0.0096 0.4025 0.2500
vt 0.0381 0.3087 0.2500
vt 0.0843 0.2222 0.2500
vt 0.1464 0.1464 0.2500
vt 0.2222 0.0843 0.2500
vt 0.3087 0.0381 0.2500
vt 0.4025 0.0096 0.2500
vt 0.5000 0.0000 0.2500
vt 0.5975 0.0096 0.2500
vt 0.6913 0.0381 0.2500
vt 0.7778 0.0843 0.2500
vt 0.8536 0.1464 0.2500
vt 0.9157 0.2222 0.2500
vt 0.9619 0.3087 0.2500
vt 0.9904 0.4025 0.2500
vt 0.8536 0.8536 0.2500
# 132 texture coords

g Box001
usemtl 01___Default
s 2
f 1/1/1 2/2/1 3/3/1 4/4/1 
s 4
f 5/5/2 6/6/2 7/7/2 8/8/2 
s 8
f 3/5/3 5/6/3 8/7/3 4/8/3 
s 64
f 1/8/4 4/4/4 8/1/4 7/7/4 
s 2
f 9/9/1 10/10/1 11/11/1 12/12/1 
s 4
f 13/10/2 14/9/2 15/13/2 16/14/2 
s 8
f 10/10/3 13/9/3 16/13/3 11/14/3 
s 2
f 12/12/1 11/11/1 3/3/1 2/2/1 
s 4
f 16/14/2 15/13/2 6/6/2 5/5/2 
s 8
f 11/14/3 16/13/3 5/6/3 3/5/3 
s 32
f 1/4/5 7/1/5 6/2/5 2/3/5 
s off
f 6/6/2 15/13/2 17/15/2 18/16/2 
f 2/2/1 19/17/1 20/18/1 12/12/1 
f 6/2/6 18/2/6 19/3/6 2/3/6 
f 21/12/7 22/2/7 18/16/7 17/15/7 
f 23/11/8 21/12/8 17/12/8 20/11/8 
f 19/17/9 24/3/9 23/11/9 20/18/9 
f 22/2/10 24/3/10 19/3/10 18/2/10 
f 12/12/1 20/18/1 25/11/1 9/11/1 
f 20/11/5 17/12/5 26/12/5 25/11/5 
f 17/15/2 15/13/2 14/12/2 26/12/2 
s 8
f 27/19/11 28/20/12 29/21/12 30/22/11 
f 28/20/12 31/23/13 32/24/13 29/21/12 
f 31/23/13 33/25/14 34/26/14 32/24/13 
f 33/25/14 35/27/15 36/28/15 34/26/14 
f 35/27/15 37/29/16 38/30/16 36/28/15 
f 37/29/16 39/31/17 40/32/17 38/30/16 
f 39/31/17 41/33/18 42/34/18 40/32/17 
f 41/33/18 43/35/19 44/36/19 42/34/18 
f 43/35/19 45/37/20 46/38/20 44/36/19 
f 45/39/20 47/40/21 48/41/21 46/42/20 
f 47/40/21 49/43/22 50/44/22 48/41/21 
f 49/43/22 51/45/23 52/46/23 50/44/22 
f 51/45/23 53/47/24 54/48/24 52/46/23 
f 53/47/24 55/49/25 56/50/25 54/48/24 
f 55/49/25 57/51/26 58/52/26 56/50/25 
f 57/51/26 59/53/27 60/54/27 58/52/26 
f 59/53/27 61/55/28 62/56/28 60/54/27 
f 61/55/28 63/57/29 64/58/29 62/56/28 
f 63/57/29 65/59/30 66/60/30 64/58/29 
f 65/59/30 67/61/31 68/62/31 66/60/30 
f 67/61/31 69/63/32 70/64/32 68/62/31 
f 69/63/32 71/65/33 72/66/34 70/64/32 
f 71/65/33 24/67/35 22/68/35 72/66/34 
f 23/69/36 73/70/37 74/71/37 21/72/36 
f 73/70/37 75/73/38 76/74/38 74/71/37 
f 75/73/38 77/75/39 78/76/39 76/74/38 
f 77/75/39 27/19/11 30/22/11 78/76/39 
s 1
f 31/77/1 28/78/1 27/79/40 77/80/1 75/81/9 73/82/9 23/83/40 24/84/41 71/85/41 69/86/1 67/87/41 65/88/1 63/89/1 61/90/1 59/91/1 57/92/1 55/93/1 53/94/1 51/95/1 49/96/1 47/97/1 45/98/1 43/99/1 41/100/1 39/101/1 37/102/1 35/103/1 33/104/1 
f 74/105/2 76/106/42 78/107/2 30/108/2 29/109/2 32/110/2 34/111/2 36/112/2 38/113/2 40/114/2 42/115/2 44/116/2 46/117/2 48/118/2 50/119/42 52/120/42 54/121/42 56/122/2 58/123/42 60/124/42 62/125/43 64/126/43 66/127/43 68/128/43 70/129/43 72/130/43 22/131/43 21/132/42 
s 2
f 79/1/1 80/4/1 81/3/1 82/2/1 
s 4
f 83/5/2 84/8/2 85/7/2 86/6/2 
s 8
f 81/5/3 80/8/3 84/7/3 83/6/3 
s 64
f 79/8/44 85/7/44 84/1/44 80/4/44 
s 2
f 9/9/1 87/12/1 88/11/1 10/10/1 
s 4
f 13/10/2 89/14/2 90/13/2 14/9/2 
s 8
f 10/10/3 88/14/3 89/13/3 13/9/3 
s 2
f 87/12/1 82/2/1 81/3/1 88/11/1 
s 4
f 89/14/2 83/5/2 86/6/2 90/13/2 
s 8
f 88/14/3 81/5/3 83/6/3 89/13/3 
s 32
f 79/4/5 82/3/5 86/2/5 85/1/5 
s off
f 86/6/2 91/16/2 92/15/2 90/13/2 
f 82/2/1 87/12/1 93/18/1 94/17/1 
f 86/2/45 82/3/45 94/3/45 91/2/45 
f 95/12/43 92/15/43 91/16/43 96/2/43 
f 97/11/46 93/11/46 92/12/46 95/12/46 
f 94/17/1 93/18/1 97/11/1 98/3/1 
f 96/2/47 91/2/47 94/3/47 98/3/47 
f 87/12/1 9/11/1 25/11/1 93/18/1 
f 93/11/5 25/11/5 26/12/5 92/12/5 
f 92/15/2 26/12/2 14/12/2 90/13/2 
s 8
f 99/19/48 100/22/48 101/21/49 102/20/49 
f 102/20/49 101/21/49 103/24/50 104/23/50 
f 104/23/50 103/24/50 105/26/51 106/25/51 
f 106/25/51 105/26/51 107/28/52 108/27/52 
f 108/27/52 107/28/52 109/30/53 110/29/53 
f 110/29/53 109/30/53 111/32/54 112/31/54 
f 112/31/54 111/32/54 113/34/55 114/33/55 
f 114/33/55 113/34/55 115/36/56 116/35/56 
f 116/35/56 115/36/56 117/38/57 118/37/57 
f 118/39/57 117/42/57 119/41/58 120/40/58 
f 120/40/58 119/41/58 121/44/59 122/43/59 
f 122/43/59 121/44/59 123/46/60 124/45/60 
f 124/45/60 123/46/60 125/48/61 126/47/61 
f 126/47/61 125/48/61 127/50/62 128/49/62 
f 128/49/62 127/50/62 129/52/63 130/51/63 
f 130/51/63 129/52/63 131/54/64 132/53/64 
f 132/53/64 131/54/64 133/56/65 134/55/65 
f 134/55/65 133/56/65 135/58/66 136/57/66 
f 136/57/66 135/58/66 137/60/67 138/59/67 
f 138/59/67 137/60/67 139/62/68 140/61/68 
f 140/61/68 139/62/68 141/64/69 142/63/69 
f 142/63/69 141/64/69 143/66/70 144/65/71 
f 144/65/71 143/66/70 96/68/72 98/67/72 
f 97/69/73 95/72/73 145/71/74 146/70/74 
f 146/70/74 145/71/74 147/74/75 148/73/75 
f 148/73/75 147/74/75 149/76/76 150/75/76 
f 150/75/76 149/76/76 100/22/48 99/19/48 
s 1
f 97/83/41 146/82/1 148/81/1 150/80/1 99/79/41 102/78/1 104/77/1 106/104/1 108/103/1 110/102/1 112/101/1 114/100/1 116/99/1 118/98/1 120/97/1 122/96/1 124/95/1 126/94/1 128/93/1 130/92/1 132/91/1 134/90/1 136/89/1 138/88/1 140/87/40 142/86/1 144/85/40 98/84/40 
f 105/111/2 103/110/2 101/109/2 100/108/2 149/107/42 147/106/2 145/105/42 95/132/2 96/131/7 143/130/7 141/129/7 139/128/7 137/127/7 135/126/7 133/125/7 131/124/2 129/123/2 127/122/2 125/121/2 123/120/2 121/119/2 119/118/2 117/117/42 115/116/42 113/115/42 111/114/2 109/113/2 107/112/2 
# 100 polygons

