# 3ds Max Wavefront OBJ Exporter v0.97b - (c)2007 guruware
# 创建的文件:31.03.2015 10:28:33

mtllib lan2.mtl

#
# object Box003
#

v  4.4521 0.0000 7.8399
v  4.2865 0.0000 8.9988
v  3.7899 0.0000 9.8266
v  4.2865 0.0000 -8.9988
v  -2.9621 0.0000 10.3233
v  1.8032 0.0000 10.4888
v  2.9621 0.0000 10.3233
v  -1.8032 0.0000 10.4888
v  -4.4521 0.0000 -7.8399
v  -4.2865 0.0000 8.9988
v  -3.7899 0.0000 9.8266
v  -4.4521 0.0000 7.8399
v  -1.8032 0.0000 -10.4888
v  -3.7899 0.0000 -9.8266
v  -4.2865 0.0000 -8.9988
v  -2.9621 0.0000 -10.3233
v  2.9621 0.0000 -10.3233
v  1.8032 0.0000 -10.4888
v  3.7899 0.0000 -9.8266
v  4.4521 0.0000 -7.8399
v  -1.8032 1.6593 -10.4888
v  -2.9621 1.6593 -10.3233
v  -3.7899 1.6593 -9.8266
v  2.9621 1.6593 -10.3233
v  -4.2865 1.6593 8.9988
v  -4.4521 1.6593 -7.8399
v  -4.2865 1.6593 -8.9988
v  -4.4521 1.6593 7.8399
v  4.4521 1.6593 7.8399
v  1.8032 1.6593 10.4888
v  -2.9621 1.6593 10.3233
v  -3.7899 1.6593 9.8266
v  -1.8032 1.6593 10.4888
v  3.7899 1.6593 9.8266
v  2.9621 1.6593 10.3233
v  4.2865 1.6593 8.9988
v  4.2865 1.6593 -8.9988
v  4.4521 1.6593 -7.8399
v  3.7899 1.6593 -9.8266
v  1.8032 1.6593 -10.4888
# 40 vertices

vn 0.0000 -1.0000 -0.0000
vn 0.0000 1.0000 -0.0000
vn 0.0709 0.0000 0.9975
vn -0.0709 0.0000 0.9975
vn 0.9975 0.0000 -0.0709
vn 0.9975 0.0000 0.0709
vn -0.0709 0.0000 -0.9975
vn 0.0709 0.0000 -0.9975
vn -0.9975 0.0000 0.0709
vn -0.9975 0.0000 -0.0709
vn 0.3346 0.0000 0.9424
vn -0.3346 0.0000 0.9424
vn 0.9424 0.0000 -0.3346
vn -0.3346 0.0000 -0.9424
vn 0.7071 0.0000 0.7071
vn 0.9424 0.0000 0.3346
vn -0.7071 0.0000 0.7071
vn -0.9424 0.0000 0.3346
vn 0.7071 0.0000 -0.7071
vn 0.3346 0.0000 -0.9424
vn -0.7071 0.0000 -0.7071
vn -0.9424 0.0000 -0.3346
# 22 vertex normals

vt 0.0000 0.1263 0.0000
vt 0.0186 0.0710 0.0000
vt 0.0744 0.0316 0.0000
vt 0.0186 0.9290 0.0000
vt 0.8327 0.0079 0.0000
vt 0.2975 0.0000 0.0000
vt 0.1673 0.0079 0.0000
vt 0.7025 0.0000 0.0000
vt 1.0000 0.8737 0.0000
vt 0.9814 0.0710 0.0000
vt 0.9256 0.0316 0.0000
vt 1.0000 0.1263 0.0000
vt 0.7025 1.0000 0.0000
vt 0.9256 0.9684 0.0000
vt 0.9814 0.9290 0.0000
vt 0.8327 0.9921 0.0000
vt 0.1673 0.9921 0.0000
vt 0.2975 1.0000 0.0000
vt 0.0744 0.9684 0.0000
vt 0.0000 0.8737 0.0000
vt 0.8737 0.0000 0.0000
vt 0.8737 1.0000 0.0000
vt 0.1263 1.0000 0.0000
vt 0.1263 0.0000 0.0000
vt -3.1580 1.0000 0.0000
vt -3.1580 0.0000 0.0000
vt -2.3370 0.0000 0.0000
vt -2.3370 1.0000 0.0000
vt 4.1580 -0.0000 0.0000
vt 4.1580 1.0000 0.0000
vt 3.3370 1.0000 0.0000
vt 3.3370 -0.0000 0.0000
vt -1.3405 1.0000 0.0000
vt -1.3405 0.0000 0.0000
vt -0.9310 0.0000 0.0000
vt -0.9310 1.0000 0.0000
vt -1.5159 0.0000 0.0000
vt -1.5159 1.0000 0.0000
vt -0.6948 0.0000 0.0000
vt -0.6948 1.0000 0.0000
vt 2.5159 1.0000 0.0000
vt 2.5159 -0.0000 0.0000
vt 1.6948 1.0000 0.0000
vt 1.6948 -0.0000 0.0000
vt -0.5215 0.0000 0.0000
vt -0.5215 1.0000 0.0000
vt -0.1120 0.0000 0.0000
vt -0.1120 1.0000 0.0000
# 48 texture coords

g Box003
usemtl lan
s 2
f 1/1/1 2/2/1 3/3/1 4/4/1 
f 5/5/1 4/4/1 3/3/1 6/6/1 
f 3/3/1 7/7/1 6/6/1 
f 6/6/1 8/8/1 5/5/1 
f 9/9/1 4/4/1 5/5/1 10/10/1 
f 5/5/1 11/11/1 10/10/1 
f 10/10/1 12/12/1 9/9/1 
f 13/13/1 4/4/1 9/9/1 14/14/1 
f 9/9/1 15/15/1 14/14/1 
f 14/14/1 16/16/1 13/13/1 
f 17/17/1 4/4/1 13/13/1 18/18/1 
f 17/17/1 19/19/1 4/4/1 
f 20/20/1 1/1/1 4/4/1 
s 4
f 21/18/2 22/17/2 23/19/2 24/16/2 
f 25/2/2 24/16/2 23/19/2 26/20/2 
f 23/19/2 27/4/2 26/20/2 
f 26/20/2 28/1/2 25/2/2 
f 29/12/2 24/16/2 25/2/2 30/8/2 
f 31/7/2 30/8/2 25/2/2 32/3/2 
f 31/7/2 33/6/2 30/8/2 
f 34/11/2 29/12/2 30/8/2 35/5/2 
f 34/11/2 36/10/2 29/12/2 
f 37/15/2 24/16/2 29/12/2 38/9/2 
f 37/15/2 39/14/2 24/16/2 
f 40/13/2 21/18/2 24/16/2 
s 1
f 6/8/3 30/13/3 33/18/4 8/6/4 
f 20/21/5 38/22/5 29/23/6 1/24/6 
f 13/8/7 21/13/7 40/18/8 18/6/8 
f 12/21/9 28/22/9 26/23/10 9/24/10 
f 30/25/3 6/26/3 7/27/11 35/28/11 
f 8/29/4 33/30/4 31/31/12 5/32/12 
f 38/33/5 20/34/5 4/35/13 37/36/13 
f 21/25/7 13/26/7 16/27/14 22/28/14 
f 35/28/11 7/27/11 3/37/15 34/38/15 
f 34/38/15 3/37/15 2/39/16 36/40/16 
f 36/40/16 2/39/16 1/24/6 29/23/6 
f 5/32/12 31/31/12 32/41/17 11/42/17 
f 11/42/17 32/41/17 25/43/18 10/44/18 
f 10/44/18 25/43/18 28/22/9 12/21/9 
f 37/36/13 4/35/13 19/45/19 39/46/19 
f 39/46/19 19/45/19 17/47/20 24/48/20 
f 24/48/20 17/47/20 18/6/8 40/18/8 
f 22/28/14 16/27/14 14/37/21 23/38/21 
f 23/38/21 14/37/21 15/39/22 27/40/22 
f 27/40/22 15/39/22 9/24/10 26/23/10 
# 31 polygons - 14 triangles

