# 3ds Max Wavefront OBJ Exporter v0.97b - (c)2007 guruware
# 创建的文件:31.03.2015 10:30:55

mtllib lv2.mtl

#
# object Cylinder001
#

v  6.4378 0.0000 -1.2806
v  6.4378 1.6593 -1.2806
v  6.5639 1.6593 -0.0000
v  6.5639 0.0000 -0.0000
v  6.0642 0.0000 -2.5119
v  6.0642 1.6593 -2.5119
v  5.4577 0.0000 -3.6467
v  5.4577 1.6593 -3.6467
v  4.6414 0.0000 -4.6414
v  4.6414 1.6593 -4.6414
v  3.6467 0.0000 -5.4577
v  3.6467 1.6593 -5.4577
v  2.5119 0.0000 -6.0642
v  2.5119 1.6593 -6.0642
v  1.2806 0.0000 -6.4378
v  1.2806 1.6593 -6.4378
v  0.0000 0.0000 -6.5639
v  0.0000 1.6593 -6.5639
v  -1.2806 0.0000 -6.4378
v  -1.2806 1.6593 -6.4378
v  -2.5119 0.0000 -6.0642
v  -2.5119 1.6593 -6.0642
v  -3.6467 0.0000 -5.4577
v  -3.6467 1.6593 -5.4577
v  -4.6414 0.0000 -4.6414
v  -4.6414 1.6593 -4.6414
v  -5.4577 0.0000 -3.6467
v  -5.4577 1.6593 -3.6467
v  -6.0642 0.0000 -2.5119
v  -6.0642 1.6593 -2.5119
v  -6.4378 0.0000 -1.2806
v  -6.4378 1.6593 -1.2806
v  -6.5639 0.0000 -0.0000
v  -6.5639 1.6593 -0.0000
v  -6.4378 0.0000 1.2806
v  -6.4378 1.6593 1.2806
v  -6.0642 0.0000 2.5119
v  -6.0642 1.6593 2.5119
v  -5.4577 0.0000 3.6467
v  -5.4577 1.6593 3.6467
v  -4.6414 0.0000 4.6414
v  -4.6414 1.6593 4.6414
v  -3.6467 0.0000 5.4577
v  -3.6467 1.6593 5.4577
v  -2.5119 0.0000 6.0642
v  -2.5119 1.6593 6.0642
v  -1.2805 0.0000 6.4378
v  -1.2805 1.6593 6.4378
v  0.0000 0.0000 6.5639
v  0.0000 1.6593 6.5639
v  1.2806 0.0000 6.4378
v  1.2806 1.6593 6.4378
v  2.5119 0.0000 6.0642
v  2.5119 1.6593 6.0642
v  3.6467 0.0000 5.4577
v  3.6467 1.6593 5.4577
v  4.6414 0.0000 4.6414
v  4.6414 1.6593 4.6414
v  5.4577 0.0000 3.6467
v  5.4577 1.6593 3.6467
v  6.0642 0.0000 2.5119
v  6.0642 1.6593 2.5119
v  6.4378 0.0000 1.2805
v  6.4378 1.6593 1.2805
# 64 vertices

vn 0.9808 0.0000 -0.1951
vn 1.0000 0.0000 -0.0000
vn 0.9239 0.0000 -0.3827
vn 0.8315 0.0000 -0.5556
vn 0.7071 0.0000 -0.7071
vn 0.5556 0.0000 -0.8315
vn 0.3827 0.0000 -0.9239
vn 0.1951 0.0000 -0.9808
vn 0.0000 0.0000 -1.0000
vn -0.1951 0.0000 -0.9808
vn -0.3827 0.0000 -0.9239
vn -0.5556 0.0000 -0.8315
vn -0.7071 0.0000 -0.7071
vn -0.8315 0.0000 -0.5556
vn -0.9239 0.0000 -0.3827
vn -0.9808 0.0000 -0.1951
vn -1.0000 0.0000 -0.0000
vn -0.9808 0.0000 0.1951
vn -0.9239 0.0000 0.3827
vn -0.8315 0.0000 0.5556
vn -0.7071 0.0000 0.7071
vn -0.5556 0.0000 0.8315
vn -0.3827 0.0000 0.9239
vn -0.1951 0.0000 0.9808
vn 0.0000 0.0000 1.0000
vn 0.1951 0.0000 0.9808
vn 0.3827 0.0000 0.9239
vn 0.5556 0.0000 0.8315
vn 0.7071 0.0000 0.7071
vn 0.8315 0.0000 0.5556
vn 0.9239 0.0000 0.3827
vn 0.9808 0.0000 0.1951
vn 0.0000 -1.0000 -0.0000
vn 0.0000 1.0000 -0.0000
# 34 vertex normals

vt 0.7813 0.0000 1.0000
vt 0.7813 1.0000 1.0000
vt 0.7500 1.0000 1.0000
vt 0.7500 0.0000 1.0000
vt 0.8125 0.0000 1.0000
vt 0.8125 1.0000 1.0000
vt 0.8437 0.0000 1.0000
vt 0.8437 1.0000 1.0000
vt 0.8750 0.0000 1.0000
vt 0.8750 1.0000 1.0000
vt 0.9062 0.0000 1.0000
vt 0.9062 1.0000 1.0000
vt 0.9375 0.0000 1.0000
vt 0.9375 1.0000 1.0000
vt 0.9688 0.0000 1.0000
vt 0.9688 1.0000 1.0000
vt 1.0000 0.0000 1.0000
vt 1.0000 1.0000 1.0000
vt 1.0313 0.0000 1.0000
vt 1.0313 1.0000 1.0000
vt 0.0625 0.0000 1.0000
vt 0.0625 1.0000 1.0000
vt 0.0313 1.0000 1.0000
vt 0.0313 0.0000 1.0000
vt 0.0938 0.0000 1.0000
vt 0.0938 1.0000 1.0000
vt 0.1250 0.0000 1.0000
vt 0.1250 1.0000 1.0000
vt 0.1563 0.0000 1.0000
vt 0.1563 1.0000 1.0000
vt 0.1875 0.0000 1.0000
vt 0.1875 1.0000 1.0000
vt 0.2188 0.0000 1.0000
vt 0.2188 1.0000 1.0000
vt 0.2500 0.0000 1.0000
vt 0.2500 1.0000 1.0000
vt 0.2813 0.0000 1.0000
vt 0.2813 1.0000 1.0000
vt 0.3125 0.0000 1.0000
vt 0.3125 1.0000 1.0000
vt 0.3438 0.0000 1.0000
vt 0.3438 1.0000 1.0000
vt 0.3750 0.0000 1.0000
vt 0.3750 1.0000 1.0000
vt 0.4063 0.0000 1.0000
vt 0.4063 1.0000 1.0000
vt 0.4375 0.0000 1.0000
vt 0.4375 1.0000 1.0000
vt 0.4688 0.0000 1.0000
vt 0.4688 1.0000 1.0000
vt 0.5000 0.0000 1.0000
vt 0.5000 1.0000 1.0000
vt 0.5313 0.0000 1.0000
vt 0.5313 1.0000 1.0000
vt 0.5625 0.0000 1.0000
vt 0.5625 1.0000 1.0000
vt 0.5938 0.0000 1.0000
vt 0.5938 1.0000 1.0000
vt 0.6250 0.0000 1.0000
vt 0.6250 1.0000 1.0000
vt 0.6563 0.0000 1.0000
vt 0.6563 1.0000 1.0000
vt 0.6875 0.0000 1.0000
vt 0.6875 1.0000 1.0000
vt 0.7188 0.0000 1.0000
vt 0.7188 1.0000 1.0000
vt 0.4025 0.9904 -0.2500
vt 0.5000 1.0000 -0.2500
vt 0.5975 0.9904 -0.2500
vt 0.2222 0.9157 -0.2500
vt 0.9157 0.7778 -0.2500
vt 0.7778 0.9157 -0.2500
vt 0.6913 0.9619 -0.2500
vt 0.8536 0.8536 -0.2500
vt 0.7778 0.0843 -0.2500
vt 0.9904 0.4025 -0.2500
vt 0.9904 0.5975 -0.2500
vt 0.9619 0.6913 -0.2500
vt 1.0000 0.5000 -0.2500
vt 0.9157 0.2222 -0.2500
vt 0.9619 0.3087 -0.2500
vt 0.8536 0.1464 -0.2500
vt 0.0843 0.2222 -0.2500
vt 0.4025 0.0096 -0.2500
vt 0.5975 0.0096 -0.2500
vt 0.6913 0.0381 -0.2500
vt 0.5000 0.0000 -0.2500
vt 0.2222 0.0843 -0.2500
vt 0.3087 0.0381 -0.2500
vt 0.1464 0.1464 -0.2500
vt 0.0096 0.5975 -0.2500
vt 0.0096 0.4025 -0.2500
vt 0.0381 0.3087 -0.2500
vt 0.0000 0.5000 -0.2500
vt 0.0843 0.7778 -0.2500
vt 0.0381 0.6913 -0.2500
vt 0.1464 0.8536 -0.2500
vt 0.3087 0.9619 -0.2500
vt 0.6913 0.9619 0.2500
vt 0.5975 0.9904 0.2500
vt 0.5000 1.0000 0.2500
vt 0.8536 0.8536 0.2500
vt 0.1464 0.8536 0.2500
vt 0.3087 0.9619 0.2500
vt 0.4025 0.9904 0.2500
vt 0.2222 0.9157 0.2500
vt 0.1464 0.1464 0.2500
vt 0.0000 0.5000 0.2500
vt 0.0381 0.6913 0.2500
vt 0.0843 0.7778 0.2500
vt 0.0096 0.5975 0.2500
vt 0.0381 0.3087 0.2500
vt 0.0096 0.4025 0.2500
vt 0.0843 0.2222 0.2500
vt 0.8536 0.1464 0.2500
vt 0.5000 0.0000 0.2500
vt 0.3087 0.0381 0.2500
vt 0.2222 0.0843 0.2500
vt 0.4025 0.0096 0.2500
vt 0.6913 0.0381 0.2500
vt 0.5975 0.0096 0.2500
vt 0.7778 0.0843 0.2500
vt 1.0000 0.5000 0.2500
vt 0.9619 0.3087 0.2500
vt 0.9157 0.2222 0.2500
vt 0.9904 0.4025 0.2500
vt 0.9619 0.6913 0.2500
vt 0.9904 0.5975 0.2500
vt 0.9157 0.7778 0.2500
vt 0.7778 0.9157 0.2500
# 130 texture coords

g Cylinder001
usemtl 04___Default
s 8
f 1/1/1 2/2/1 3/3/2 4/4/2 
f 5/5/3 6/6/3 2/2/1 1/1/1 
f 7/7/4 8/8/4 6/6/3 5/5/3 
f 9/9/5 10/10/5 8/8/4 7/7/4 
f 11/11/6 12/12/6 10/10/5 9/9/5 
f 13/13/7 14/14/7 12/12/6 11/11/6 
f 15/15/8 16/16/8 14/14/7 13/13/7 
f 17/17/9 18/18/9 16/16/8 15/15/8 
f 19/19/10 20/20/10 18/18/9 17/17/9 
f 21/21/11 22/22/11 20/23/10 19/24/10 
f 23/25/12 24/26/12 22/22/11 21/21/11 
f 25/27/13 26/28/13 24/26/12 23/25/12 
f 27/29/14 28/30/14 26/28/13 25/27/13 
f 29/31/15 30/32/15 28/30/14 27/29/14 
f 31/33/16 32/34/16 30/32/15 29/31/15 
f 33/35/17 34/36/17 32/34/16 31/33/16 
f 35/37/18 36/38/18 34/36/17 33/35/17 
f 37/39/19 38/40/19 36/38/18 35/37/18 
f 39/41/20 40/42/20 38/40/19 37/39/19 
f 41/43/21 42/44/21 40/42/20 39/41/20 
f 43/45/22 44/46/22 42/44/21 41/43/21 
f 45/47/23 46/48/23 44/46/22 43/45/22 
f 47/49/24 48/50/24 46/48/23 45/47/23 
f 49/51/25 50/52/25 48/50/24 47/49/24 
f 51/53/26 52/54/26 50/52/25 49/51/25 
f 53/55/27 54/56/27 52/54/26 51/53/26 
f 55/57/28 56/58/28 54/56/27 53/55/27 
f 57/59/29 58/60/29 56/58/28 55/57/28 
f 59/61/30 60/62/30 58/60/29 57/59/29 
f 61/63/31 62/64/31 60/62/30 59/61/30 
f 63/65/32 64/66/32 62/64/31 61/63/31 
f 4/4/2 3/3/2 64/66/32 63/65/32 
s 1
f 1/67/33 4/68/33 63/69/33 7/70/33 
f 55/71/33 7/70/33 63/69/33 59/72/33 
f 63/69/33 61/73/33 59/72/33 
f 59/72/33 57/74/33 55/71/33 
f 39/75/33 7/70/33 55/71/33 47/76/33 
f 51/77/33 47/76/33 55/71/33 53/78/33 
f 51/77/33 49/79/33 47/76/33 
f 43/80/33 39/75/33 47/76/33 45/81/33 
f 43/80/33 41/82/33 39/75/33 
f 23/83/33 7/70/33 39/75/33 31/84/33 
f 35/85/33 31/84/33 39/75/33 37/86/33 
f 35/85/33 33/87/33 31/84/33 
f 27/88/33 23/83/33 31/84/33 29/89/33 
f 27/88/33 25/90/33 23/83/33 
f 15/91/33 7/70/33 23/83/33 19/92/33 
f 23/83/33 21/93/33 19/92/33 
f 19/92/33 17/94/33 15/91/33 
f 11/95/33 7/70/33 15/91/33 13/96/33 
f 11/95/33 9/97/33 7/70/33 
f 5/98/33 1/67/33 7/70/33 
f 62/99/34 64/100/34 3/101/34 58/102/34 
f 10/103/34 58/102/34 3/101/34 6/104/34 
f 3/101/34 2/105/34 6/104/34 
f 6/104/34 8/106/34 10/103/34 
f 26/107/34 58/102/34 10/103/34 18/108/34 
f 14/109/34 18/108/34 10/103/34 12/110/34 
f 14/109/34 16/111/34 18/108/34 
f 22/112/34 26/107/34 18/108/34 20/113/34 
f 22/112/34 24/114/34 26/107/34 
f 42/115/34 58/102/34 26/107/34 34/116/34 
f 30/117/34 34/116/34 26/107/34 28/118/34 
f 30/117/34 32/119/34 34/116/34 
f 38/120/34 42/115/34 34/116/34 36/121/34 
f 38/120/34 40/122/34 42/115/34 
f 50/123/34 58/102/34 42/115/34 46/124/34 
f 42/115/34 44/125/34 46/124/34 
f 46/124/34 48/126/34 50/123/34 
f 54/127/34 58/102/34 50/123/34 52/128/34 
f 54/127/34 56/129/34 58/102/34 
f 60/130/34 62/99/34 58/102/34 
# 52 polygons - 20 triangles

